<mxfile host="app.diagrams.net" agent="Mozilla/5.0 (Macintosh; Intel Mac OS X 10_15_7) AppleWebKit/537.36 (KHTML, like Gecko) Chrome/131.0.0.0 Safari/537.36" version="25.0.3">
  <diagram name="第 1 页" id="OkHcdpUXPn1q1teVOjKF">
    <mxGraphModel dx="954" dy="499" grid="1" gridSize="10" guides="1" tooltips="1" connect="1" arrows="1" fold="1" page="1" pageScale="1" pageWidth="827" pageHeight="1169" math="0" shadow="0">
      <root>
        <mxCell id="0" />
        <mxCell id="1" parent="0" />
        <mxCell id="qAJiwPl70GLXNSQBcnNx-25" value="" style="rounded=0;whiteSpace=wrap;html=1;" parent="1" vertex="1">
          <mxGeometry x="69" y="420" width="621" height="50" as="geometry" />
        </mxCell>
        <mxCell id="qAJiwPl70GLXNSQBcnNx-16" value="" style="rounded=0;whiteSpace=wrap;html=1;" parent="1" vertex="1">
          <mxGeometry x="70" y="110" width="580" height="50" as="geometry" />
        </mxCell>
        <mxCell id="qAJiwPl70GLXNSQBcnNx-2" value="条件" style="text;html=1;align=left;verticalAlign=middle;whiteSpace=wrap;rounded=0;" parent="1" vertex="1">
          <mxGeometry x="70" y="75" width="60" height="30" as="geometry" />
        </mxCell>
        <mxCell id="qAJiwPl70GLXNSQBcnNx-4" value="添加条件" style="rounded=1;whiteSpace=wrap;html=1;" parent="1" vertex="1">
          <mxGeometry x="599" y="80" width="51" height="20" as="geometry" />
        </mxCell>
        <mxCell id="qAJiwPl70GLXNSQBcnNx-5" value="结果" style="text;html=1;align=left;verticalAlign=middle;whiteSpace=wrap;rounded=0;" parent="1" vertex="1">
          <mxGeometry x="70" y="325" width="60" height="30" as="geometry" />
        </mxCell>
        <mxCell id="qAJiwPl70GLXNSQBcnNx-10" value="&lt;div style=&quot;text-align: left;&quot;&gt;&lt;span style=&quot;background-color: initial; text-align: center;&quot;&gt;添加结果&lt;/span&gt;&lt;/div&gt;" style="rounded=1;whiteSpace=wrap;html=1;" parent="1" vertex="1">
          <mxGeometry x="634.5" y="330" width="51" height="20" as="geometry" />
        </mxCell>
        <mxCell id="qAJiwPl70GLXNSQBcnNx-13" value="逻辑运算符：且、或" style="rounded=1;whiteSpace=wrap;html=1;align=left;" parent="1" vertex="1">
          <mxGeometry x="70" y="170" width="380" height="30" as="geometry" />
        </mxCell>
        <mxCell id="qAJiwPl70GLXNSQBcnNx-14" value="字段d的下拉数据" style="rounded=1;whiteSpace=wrap;html=1;align=left;" parent="1" vertex="1">
          <mxGeometry x="80" y="430" width="100" height="30" as="geometry" />
        </mxCell>
        <mxCell id="qAJiwPl70GLXNSQBcnNx-1" value="字段a" style="rounded=1;whiteSpace=wrap;html=1;align=center;" parent="1" vertex="1">
          <mxGeometry x="80" y="120" width="50" height="30" as="geometry" />
        </mxCell>
        <mxCell id="qAJiwPl70GLXNSQBcnNx-3" value="比较运算符：等于、不等于、大于、小于、大于等于、小于等于、包含、不包含" style="rounded=1;whiteSpace=wrap;html=1;align=left;" parent="1" vertex="1">
          <mxGeometry x="140" y="120" width="440" height="30" as="geometry" />
        </mxCell>
        <mxCell id="qAJiwPl70GLXNSQBcnNx-11" value="&lt;div&gt;100&lt;/div&gt;" style="rounded=1;whiteSpace=wrap;html=1;align=center;" parent="1" vertex="1">
          <mxGeometry x="590" y="120" width="50" height="30" as="geometry" />
        </mxCell>
        <mxCell id="qAJiwPl70GLXNSQBcnNx-23" value="比较运算符：等于、不等于、大于、小于、大于等于、小于等于、包含、不包含" style="rounded=1;whiteSpace=wrap;html=1;align=left;" parent="1" vertex="1">
          <mxGeometry x="189" y="430" width="440" height="30" as="geometry" />
        </mxCell>
        <mxCell id="qAJiwPl70GLXNSQBcnNx-24" value="200" style="rounded=1;whiteSpace=wrap;html=1;align=center;" parent="1" vertex="1">
          <mxGeometry x="640" y="430" width="40" height="30" as="geometry" />
        </mxCell>
        <mxCell id="qAJiwPl70GLXNSQBcnNx-28" value="" style="rounded=0;whiteSpace=wrap;html=1;" parent="1" vertex="1">
          <mxGeometry x="69" y="360" width="621" height="50" as="geometry" />
        </mxCell>
        <mxCell id="qAJiwPl70GLXNSQBcnNx-29" value="字段c" style="rounded=1;whiteSpace=wrap;html=1;align=center;" parent="1" vertex="1">
          <mxGeometry x="80" y="370" width="100" height="30" as="geometry" />
        </mxCell>
        <mxCell id="qAJiwPl70GLXNSQBcnNx-30" value="比较运算符：等于、不等于、大于、小于、大于等于、小于等于、包含、不包含" style="rounded=1;whiteSpace=wrap;html=1;align=left;" parent="1" vertex="1">
          <mxGeometry x="189" y="370" width="440" height="30" as="geometry" />
        </mxCell>
        <mxCell id="qAJiwPl70GLXNSQBcnNx-31" value="200" style="rounded=1;whiteSpace=wrap;html=1;align=center;" parent="1" vertex="1">
          <mxGeometry x="639" y="370" width="41" height="30" as="geometry" />
        </mxCell>
        <mxCell id="qAJiwPl70GLXNSQBcnNx-32" value="添加逻辑运算" style="rounded=1;whiteSpace=wrap;html=1;" parent="1" vertex="1">
          <mxGeometry x="660" y="125" width="90" height="20" as="geometry" />
        </mxCell>
        <mxCell id="qAJiwPl70GLXNSQBcnNx-34" value="" style="rounded=0;whiteSpace=wrap;html=1;" parent="1" vertex="1">
          <mxGeometry x="70" y="210" width="580" height="50" as="geometry" />
        </mxCell>
        <mxCell id="qAJiwPl70GLXNSQBcnNx-35" value="字段a" style="rounded=1;whiteSpace=wrap;html=1;align=center;" parent="1" vertex="1">
          <mxGeometry x="80" y="220" width="50" height="30" as="geometry" />
        </mxCell>
        <mxCell id="qAJiwPl70GLXNSQBcnNx-36" value="比较运算符：等于、不等于、大于、小于、大于等于、小于等于、包含、不包含" style="rounded=1;whiteSpace=wrap;html=1;align=left;" parent="1" vertex="1">
          <mxGeometry x="140" y="220" width="440" height="30" as="geometry" />
        </mxCell>
        <mxCell id="qAJiwPl70GLXNSQBcnNx-37" value="&lt;div&gt;100&lt;/div&gt;" style="rounded=1;whiteSpace=wrap;html=1;align=center;" parent="1" vertex="1">
          <mxGeometry x="590" y="220" width="50" height="30" as="geometry" />
        </mxCell>
        <mxCell id="qAJiwPl70GLXNSQBcnNx-38" value="添加逻辑运算" style="rounded=1;whiteSpace=wrap;html=1;" parent="1" vertex="1">
          <mxGeometry x="660" y="225" width="90" height="20" as="geometry" />
        </mxCell>
      </root>
    </mxGraphModel>
  </diagram>
</mxfile>
